<svg xmlns="http://www.w3.org/2000/svg" xml:space="preserve" fill-rule="evenodd" stroke-linejoin="round" stroke-miterlimit="2" clip-rule="evenodd" viewBox="0 0 569 150">
  <path d="M39.67 54.036a4.627 4.627 0 0 1 5.942-3.723c13.842 4.326 26.533 10.714 38.082 19.158a4.623 4.623 0 0 1 .278 7.233c-11.747 10.092-23.603 17.734-35.546 23.35a4.63 4.63 0 0 1-6.382-2.84c-4.034-13.425-4.682-27.862-2.375-43.178Z"/>
  <path d="M3.927 11.679c.605-3.95 2.9-7.447 6.29-9.573A13.756 13.756 0 0 1 21.574.629c41.101 12.839 78.786 31.81 113.07 56.88a13.744 13.744 0 0 1 .832 21.485c-34.88 29.961-70.085 52.651-105.546 69.325a13.757 13.757 0 0 1-11.4.099 13.728 13.728 0 0 1-7.549-8.532C-1.002 100.022-2.92 57.16 3.927 11.68Zm84.7 92.048a13.717 13.717 0 0 1-6.33 9.987 13.737 13.737 0 0 1-11.747 1.362c-20.733-7.08-40.02-16.756-57.865-29.006a13.76 13.76 0 0 1-5.96-10.734 13.743 13.743 0 0 1 5.007-11.215C29.604 49.404 47.607 37.718 65.73 28.633a13.738 13.738 0 0 1 19.472 8.904c5.255 20.835 6.25 42.946 3.424 66.19Z"/>
  <path fill-rule="nonzero" d="M179.415 32.312h8.939l13.246 38.97 13.183-38.97h8.81V78.42h-5.916v-27.2c0-.965 0-2.509.064-4.695.064-2.187.064-4.502.064-7.01L204.623 78.42h-6.173l-13.247-38.904v1.414c0 1.158 0 2.83.064 5.145.064 2.315.129 4.05.129 5.144V78.42h-5.98V32.312Z"/>
  <path fill-rule="nonzero" d="M226.358 32.312h7.266l13.247 22.121 13.247-22.12h7.33l-17.426 27.522v18.584h-6.237V59.835l-17.427-27.523Z"/>
  <path fill-rule="nonzero" d="M182.06 91.441c.073-1.325.294-2.32.7-2.945.773-1.105 2.245-1.657 4.381-1.657.22 0 .405.037.626.037.22 0 .479.037.736.037v2.945c-.331 0-.552-.037-.736-.037h-.405c-.994 0-1.583.258-1.767.774-.185.515-.295 1.804-.295 3.866h3.203v2.577h-3.24v16.606h-3.203V97.038h-2.651v-2.577h2.65v-3.02Z"/>
  <path fill-rule="nonzero" d="M189.75 94.387h3.055v3.314c.258-.626.884-1.436 1.878-2.357.957-.92 2.099-1.399 3.387-1.399.074 0 .148 0 .295.037.147 0 .405.037.736.074v3.424a2.888 2.888 0 0 0-.515-.074c-.184-.036-.331-.036-.552-.036-1.62 0-2.872.515-3.756 1.583a5.554 5.554 0 0 0-1.289 3.608v11.083h-3.24V94.387Z"/>
  <path fill-rule="nonzero" d="M208.086 93.945c1.362 0 2.687.332 3.976.958 1.289.662 2.246 1.472 2.946 2.503.626.958 1.068 2.1 1.288 3.388.185.883.295 2.32.295 4.271h-14.139c.074 1.951.552 3.498 1.4 4.676.846 1.178 2.208 1.768 4.013 1.768 1.693 0 3.019-.553 4.05-1.657.552-.663.957-1.4 1.215-2.246h3.166c-.073.7-.33 1.51-.81 2.356a8.337 8.337 0 0 1-1.62 2.136c-.957.957-2.172 1.62-3.645 1.951-.773.184-1.657.295-2.614.295-2.43 0-4.455-.884-6.112-2.615-1.657-1.767-2.504-4.197-2.504-7.327 0-3.093.847-5.633 2.54-7.548 1.657-1.915 3.867-2.909 6.555-2.909Zm5.154 8.543c-.11-1.4-.441-2.541-.92-3.388-.884-1.546-2.357-2.32-4.419-2.32-1.51 0-2.724.553-3.755 1.62-.994 1.068-1.547 2.43-1.583 4.088h10.677Z"/>
  <path fill-rule="nonzero" d="M226.723 93.945c1.362 0 2.688.332 3.976.958 1.289.662 2.246 1.472 2.946 2.503.626.958 1.068 2.1 1.289 3.388.184.883.294 2.32.294 4.271H221.09c.074 1.951.553 3.498 1.4 4.676.846 1.178 2.209 1.768 4.013 1.768 1.694 0 3.02-.553 4.05-1.657.552-.663.957-1.4 1.215-2.246h3.167c-.074.7-.332 1.51-.81 2.356a8.337 8.337 0 0 1-1.62 2.136c-.958.957-2.173 1.62-3.646 1.951-.773.184-1.657.295-2.614.295-2.43 0-4.455-.884-6.112-2.615-1.657-1.767-2.504-4.197-2.504-7.327 0-3.093.847-5.633 2.54-7.548 1.658-1.915 3.867-2.909 6.555-2.909Zm5.155 8.543c-.11-1.4-.442-2.541-.92-3.388-.885-1.546-2.357-2.32-4.42-2.32-1.509 0-2.724.553-3.755 1.62-.994 1.068-1.546 2.43-1.583 4.088h10.678Z"/>
  <path fill-rule="nonzero" d="M237.444 87.244h3.24v26.4h-3.24z"/>
  <path fill-rule="nonzero" d="M251.33 111.545c2.137 0 3.61-.81 4.42-2.43.773-1.62 1.178-3.424 1.178-5.412 0-1.805-.258-3.277-.847-4.382-.92-1.767-2.504-2.651-4.713-2.651-1.989 0-3.425.736-4.308 2.246-.92 1.51-1.363 3.35-1.363 5.486 0 2.025.442 3.756 1.363 5.118.883 1.363 2.32 2.025 4.27 2.025Zm.111-17.71c2.504 0 4.603.81 6.297 2.467 1.73 1.657 2.577 4.087 2.577 7.327 0 3.093-.736 5.67-2.246 7.695-1.51 2.026-3.866 3.02-7.033 3.02-2.65 0-4.75-.884-6.333-2.688-1.546-1.804-2.32-4.198-2.32-7.217 0-3.24.81-5.818 2.468-7.732 1.62-1.915 3.829-2.872 6.59-2.872Z"/>
  <path fill-rule="nonzero" d="M269.121 94.056c1.51 0 2.835.368 3.94 1.104.626.405 1.252 1.031 1.878 1.841v-2.43h2.982v17.527c0 2.43-.331 4.344-1.068 5.78-1.325 2.615-3.866 3.903-7.621 3.903-2.062 0-3.793-.441-5.229-1.399-1.399-.92-2.209-2.356-2.356-4.345h3.277c.147.847.478 1.51.957 1.989.736.736 1.878 1.067 3.424 1.067 2.504 0 4.124-.846 4.897-2.614.442-1.03.663-2.872.626-5.523-.662.994-1.436 1.73-2.356 2.21-.884.478-2.099.699-3.608.699-2.062 0-3.903-.736-5.45-2.21-1.583-1.472-2.356-3.939-2.356-7.326 0-3.24.773-5.744 2.356-7.549 1.583-1.84 3.461-2.724 5.707-2.724Zm5.818 9.868c0-2.357-.479-4.124-1.473-5.303-.994-1.141-2.246-1.73-3.756-1.73-2.282 0-3.829 1.068-4.676 3.203-.442 1.142-.663 2.651-.663 4.492 0 2.173.442 3.83 1.326 4.934.884 1.142 2.062 1.73 3.535 1.73 2.356 0 3.976-1.067 4.934-3.166.515-1.178.773-2.577.773-4.16Z"/>
  <path fill-rule="nonzero" d="M288.602 111.545c2.136 0 3.609-.81 4.419-2.43.773-1.62 1.178-3.424 1.178-5.412 0-1.805-.258-3.277-.847-4.382-.92-1.767-2.504-2.651-4.713-2.651-1.988 0-3.424.736-4.308 2.246-.92 1.51-1.362 3.35-1.362 5.486 0 2.025.442 3.756 1.362 5.118.884 1.363 2.32 2.025 4.271 2.025Zm.11-17.71c2.504 0 4.603.81 6.297 2.467 1.73 1.657 2.577 4.087 2.577 7.327 0 3.093-.736 5.67-2.246 7.695-1.51 2.026-3.866 3.02-7.032 3.02-2.651 0-4.75-.884-6.333-2.688-1.547-1.804-2.32-4.198-2.32-7.217 0-3.24.81-5.818 2.467-7.732 1.62-1.915 3.83-2.872 6.59-2.872Z"/>
  <path fill-rule="nonzero" d="M300.354 109.741h3.756v3.903h-3.756z"/>
  <path fill-rule="nonzero" d="M307.97 94.387h3.203v2.725c.773-.92 1.473-1.62 2.099-2.062 1.068-.737 2.283-1.105 3.645-1.105 1.51 0 2.762.405 3.682 1.142.552.442 1.031 1.067 1.436 1.914.736-1.03 1.583-1.804 2.54-2.283.995-.515 2.063-.773 3.278-.773 2.577 0 4.344.958 5.302 2.835.478.995.736 2.357.736 4.05v12.814h-3.35v-13.366c0-1.288-.332-2.172-.958-2.65-.663-.48-1.436-.737-2.356-.737-1.29 0-2.357.442-3.277 1.289-.92.846-1.4 2.282-1.4 4.27v11.194h-3.277v-12.556c0-1.325-.147-2.282-.478-2.872-.479-.883-1.4-1.362-2.725-1.362-1.252 0-2.356.479-3.35 1.436-.995.957-1.51 2.651-1.51 5.155v10.2h-3.24V94.386Z"/>
  <path fill-rule="nonzero" d="M344.827 93.945c1.362 0 2.688.332 3.976.958 1.289.662 2.246 1.472 2.946 2.503.626.958 1.068 2.1 1.289 3.388.184.883.294 2.32.294 4.271h-14.139c.074 1.951.553 3.498 1.4 4.676.846 1.178 2.209 1.768 4.013 1.768 1.694 0 3.02-.553 4.05-1.657.552-.663.957-1.4 1.215-2.246h3.167c-.074.7-.332 1.51-.81 2.356a8.337 8.337 0 0 1-1.62 2.136c-.958.957-2.173 1.62-3.646 1.951-.773.184-1.657.295-2.614.295-2.43 0-4.455-.884-6.112-2.615-1.657-1.767-2.504-4.197-2.504-7.327 0-3.093.847-5.633 2.54-7.548 1.658-1.915 3.867-2.909 6.555-2.909Zm5.155 8.543c-.11-1.4-.442-2.541-.92-3.388-.885-1.546-2.357-2.32-4.42-2.32-1.509 0-2.724.553-3.755 1.62-.994 1.068-1.546 2.43-1.583 4.088h10.678Z"/>
  <path fill-rule="nonzero" d="M302.099 73.672c-3.473 3.151-7.846 4.759-13.247 4.759-6.688 0-11.897-2.122-15.69-6.43-3.795-4.245-5.724-10.16-5.724-17.62 0-8.103 2.187-14.276 6.495-18.713 3.794-3.794 8.553-5.659 14.404-5.659 7.781 0 13.44 2.508 17.041 7.652 1.994 2.83 3.087 5.724 3.215 8.617h-9.645c-.643-2.186-1.48-3.922-2.444-5.016-1.736-1.993-4.373-3.022-7.845-3.022-3.473 0-6.238 1.415-8.295 4.244-1.994 2.83-3.023 6.88-3.023 12.025 0 5.209 1.03 9.132 3.215 11.704 2.122 2.572 4.888 3.858 8.167 3.858 3.408 0 5.98-1.093 7.781-3.344.965-1.157 1.8-2.958 2.444-5.337h9.581c-.836 5.016-3.022 9.131-6.43 12.282Z"/>
  <path fill-rule="nonzero" d="M333.169 78.43c-6.624 0-11.704-1.8-15.176-5.4-4.695-4.438-7.074-10.804-7.074-19.1 0-8.488 2.38-14.854 7.074-19.098 3.472-3.601 8.552-5.402 15.176-5.402 6.559 0 11.639 1.8 15.111 5.402 4.695 4.244 7.01 10.61 7.01 19.099 0 8.295-2.315 14.661-7.01 19.098-3.472 3.601-8.552 5.402-15.111 5.402Zm9.131-12.41c2.186-2.83 3.344-6.88 3.344-12.09 0-5.208-1.158-9.195-3.408-12.024-2.251-2.83-5.273-4.245-9.067-4.245-3.859 0-6.945 1.415-9.196 4.245-2.315 2.829-3.408 6.816-3.408 12.025 0 5.208 1.093 9.26 3.408 12.089 2.25 2.83 5.337 4.244 9.196 4.244 3.794 0 6.816-1.415 9.131-4.244Z"/>
  <path fill-rule="nonzero" d="M368.333 77.145h-9.003v-46.3h14.019l8.424 36.397 8.36-36.397h13.953v46.3h-9.067V45.828c0-.9.065-2.122.065-3.794v-3.73l-8.746 38.84h-9.388l-8.681-38.84v3.73c.064 1.672.064 2.894.064 3.794v31.317Z"/>
  <path fill-rule="nonzero" d="M429.487 60.49h-9.839v16.655h-9.581v-46.3h20.127c4.63 0 8.36 1.222 11.125 3.601 2.765 2.38 4.116 6.11 4.116 11.06 0 5.467-1.35 9.325-4.116 11.576-2.765 2.315-6.688 3.408-11.832 3.408Zm4.501-9.646c1.286-1.093 1.865-2.83 1.865-5.273 0-2.38-.579-4.116-1.865-5.144-1.286-1.03-3.022-1.544-5.337-1.544h-9.003v13.633h9.003c2.315 0 4.051-.515 5.337-1.672Z"/>
  <path fill-rule="nonzero" d="M472.121 67.628h-17.105l-3.15 9.517h-10.161l16.526-46.3h10.932l16.398 46.3h-10.482l-2.958-9.517Zm-2.7-7.974-5.788-18.199-5.98 18.199h11.767Z"/>
  <path fill-rule="nonzero" d="M525.634 77.145h-9.646l-18.906-32.86v32.86h-9.002v-46.3h10.095l18.456 32.346V30.845h9.003v46.3Z"/>
  <path fill-rule="nonzero" d="M568.793 30.845 553.36 59.718v17.427h-9.71V59.718l-16.012-28.873h11.382l9.646 20.192 9.195-20.192h10.932Z"/>
</svg>
